<?xml version="1.0" encoding="UTF-8"?>
<!DOCTYPE svg PUBLIC "-//W3C//DTD SVG 1.1//EN" "http://www.w3.org/Graphics/SVG/1.1/DTD/svg11.dtd">
<!-- Creator: FutureCorp VMX -->
<svg xmlns="http://www.w3.org/2000/svg" xml:space="preserve" shape-rendering="geometricPrecision" text-rendering="geometricPrecision" image-rendering="optimizeQuality" fill-rule="evenodd" clip-rule="evenodd"
 xmlns:xlink="http://www.w3.org/1999/xlink">
 <g id="Layer_1">
  <metadata id="FutureCorpID_Layer"/>

  <path fill="#000000" d="M222.65,171.59 C233.45,173.53 241.92,179.09 248.04,188.26 C254.15,197.43 256.4,207.91 254.76,219.7 C249.41,247.22 232.52,258.82 204.08,254.5 C193.16,252.31 184.51,246.73 178.14,237.75 C171.77,228.77 169.25,218.62 170.59,207.29 C175.19,179.99 192.45,168.08 222.37,171.55 L222.65,171.59 L222.65,171.59 zM130.16,131.42 C102.09,159.59 90.84,192.52 96.41,230.23 C101.98,267.94 122.25,296.65 157.22,316.35 C173.69,325.21 192.44,329.78 213.46,330.04 C234.49,330.3 250.85,326.18 262.56,317.67 C265.39,315.42 266.88,312.5 267.04,308.9 C267.2,305.31 265.95,302.66 263.3,300.94 C261.65,299.87 260.26,299.3 259.12,299.22 C258.21,299.16 256.97,299.34 255.41,299.77 C253.45,300.3 249.45,301.67 243.41,303.87 C215.24,313.36 188.76,310.98 163.97,296.73 C139.18,282.48 123.97,260.89 118.33,231.95 C112.7,199.45 120.09,171.8 140.51,148.99 C160.93,126.19 187.5,115.89 220.24,118.11 C243.18,120.21 262.33,128.51 277.67,143.01 C293.01,157.51 302.56,176.46 306.33,199.87 C312.78,239.96 307.21,258.52 289.61,255.55 C285.17,254.8 282.04,253.46 280.22,251.54 C278.63,249.85 277.55,247.24 276.99,243.71 C276.35,239.69 276.16,233.05 276.42,223.8 C276.95,204.75 277.05,191.24 276.71,183.26 C276.42,176.3 275.73,171.28 274.65,168.2 C273.42,164.68 271.21,162.55 268.02,161.83 C265.88,161.34 263.15,161.8 259.83,163.19 C257.47,164.18 255.94,164.65 255.24,164.62 C254.75,164.59 254.06,164.38 253.2,163.99 C251.96,163.43 247.58,161.13 240.05,157.1 C209.62,141.74 183.18,148.29 160.73,176.75 C147.1,194.9 144.32,214.53 152.38,235.65 C160.44,256.76 175.77,270.09 198.38,275.63 C218.93,280.19 236.17,276.07 250.1,263.26 C253.58,260.49 255.71,259.02 256.5,258.84 C257.06,258.73 257.71,258.91 258.44,259.38 C259.48,260.04 262.94,263.03 268.81,268.35 C278.64,276.65 289.41,279.21 301.13,276.02 C312.83,272.83 321.06,265.1 325.8,252.82 C329.69,240.77 330.62,225.43 328.61,206.79 C326.59,188.16 322.32,172.65 315.79,160.28 C296.06,124.51 267.26,103.66 229.39,97.72 C191.53,91.79 158.46,103.02 130.16,131.42 L130.16,131.42 zM365.3,62.97 C405.74,104.39 425.61,154.97 424.92,214.7 C424.23,275.02 403.4,325.31 362.44,365.58 C321.47,405.85 270.92,425.72 210.79,425.19 C151.01,424.66 100.8,403.75 60.17,362.46 C19.55,321.17 -0.51,270.67 0.01,210.94 C0.52,151.26 21.48,101.05 62.87,60.31 C104.26,19.56 154.78,-0.53 214.44,0.01 L215.12,0.02 C274.8,0.56 324.86,21.55 365.3,62.97 L365.3,62.97 z"/>
 </g>
</svg>

