<?xml version="1.0" encoding="UTF-8"?>
<!DOCTYPE svg PUBLIC "-//W3C//DTD SVG 1.1//EN" "http://www.w3.org/Graphics/SVG/1.1/DTD/svg11.dtd">
<!-- Creator: FutureCorp VMX -->
<svg xmlns="http://www.w3.org/2000/svg" xml:space="preserve" shape-rendering="geometricPrecision" text-rendering="geometricPrecision" image-rendering="optimizeQuality" fill-rule="evenodd" clip-rule="evenodd"
 xmlns:xlink="http://www.w3.org/1999/xlink">
 <g id="Layer_1">
  <metadata id="FutureCorpID_Layer"/>

  <path fill="#000000" d="M361.34,55.8 C383.83,75.97 401.3,99.98 413.73,127.85 C426.17,155.71 432.46,184.93 432.62,215.51 C432.79,249.2 426.16,280.6 412.74,309.7 C388.48,362.26 349.07,399.52 294.5,421.47 C292.08,422.45 290.22,423.15 288.95,423.6 C287.82,423.99 286.81,424.29 285.91,424.5 C284.88,424.74 283.67,424.94 282.26,425.1 L282.21,425.1 C277.18,425.6 273.83,424.17 272.17,420.8 C271.7,419.69 271.39,418.59 271.22,417.5 C271.07,416.57 270.98,415.3 270.93,413.7 C270.87,411.82 270.85,408.58 270.86,404 C270.9,393.23 270.92,384.75 270.93,378.54 C270.94,372.75 270.94,368.1 270.94,364.61 C270.94,360.88 270.93,357.91 270.91,355.71 C270.88,351.67 270.81,348.76 270.69,346.97 C270.54,344.55 270.04,341.51 269.2,337.85 C267.23,329.27 263.3,321.59 257.4,314.81 L277,311.52 C309.18,304.55 331.37,289.1 343.55,265.18 C347.68,257.09 350.8,247.58 352.93,236.66 C355.06,225.75 355.92,214.79 355.52,203.79 C354.77,183.38 348,165.43 335.21,149.94 L333.44,147.79 L336.52,135.53 C338.82,121.89 337.43,107.76 332.33,93.12 C332.21,92.77 331.98,92.11 331.63,91.12 C331.29,90.14 331.06,89.47 330.94,89.11 C327.63,88.8 324.49,88.8 321.53,89.09 C317.11,89.54 312.6,90.52 308.02,92.04 C303.59,93.5 298.77,95.57 293.57,98.23 C288.18,100.99 281.97,104.58 274.95,109.02 C273.11,110.18 271.84,110.85 271.13,111.03 C270.6,111.17 269.96,111.19 269.19,111.1 C268.18,110.97 265.68,110.44 261.7,109.51 C230.72,102.26 199,102.62 166.55,110.61 L162.69,111.83 C159.41,109.75 156.9,108.16 155.17,107.06 C153.59,106.06 152.35,105.28 151.45,104.71 C150.47,104.1 149.7,103.62 149.14,103.27 C148.2,102.69 147.42,102.23 146.78,101.87 C145.87,101.37 143.59,100.2 139.91,98.36 C134.49,95.65 129.62,93.55 125.31,92.08 C121.13,90.65 117.2,89.7 113.51,89.24 C109.7,88.76 105.89,88.76 102.08,89.24 C101.32,91.56 100.57,93.88 99.82,96.21 C94.6,112.52 94.24,128.72 98.77,144.81 L99.59,147.73 C97.59,150.4 96.06,152.43 95.01,153.83 C94.06,155.12 93.31,156.12 92.77,156.85 C92.18,157.64 91.72,158.27 91.39,158.73 C90.85,159.48 90.42,160.12 90.1,160.64 C89.65,161.37 88.66,163.23 87.13,166.2 C77.64,184.65 75.26,207.63 80,235.14 C82.69,250.77 87.76,264 95.2,274.83 C102.58,285.56 112.41,294.16 124.69,300.63 C137.1,307.16 152.27,311.64 170.18,314.08 L175.58,314.82 C173.69,317.02 172.57,318.32 172.24,318.74 C172,319.03 171.8,319.31 171.62,319.58 C171.37,319.97 170.69,321.1 169.59,322.99 C166.79,327.78 164.79,333.16 163.58,339.11 C163.29,340.55 163,341.99 162.7,343.43 L153.44,346.77 C131.85,352.66 115.17,346.98 103.4,329.72 C101.79,327.36 100.54,325.53 99.65,324.23 C98.83,323.01 98.18,322.05 97.69,321.35 C97.16,320.58 96.74,319.97 96.42,319.52 C95.86,318.74 95.38,318.12 94.98,317.66 C94.44,317.03 93.19,315.81 91.25,313.99 C86.01,309.09 80.24,305.71 73.94,303.84 C67.65,301.98 62.53,302.12 58.58,304.29 C56.94,305.32 56.25,306.64 56.52,308.24 C56.79,309.84 57.98,311.47 60.09,313.14 C62.38,314.8 64.67,316.46 66.94,318.13 C70.58,320.8 73.49,323.34 75.69,325.76 C77.68,327.93 79.55,330.5 81.31,333.47 C83.27,336.76 85.6,341.41 88.31,347.41 C92.71,357.19 98.97,364.55 107.08,369.47 C119.94,377.29 136.2,379.55 155.87,376.27 L161.94,375.25 L161.88,414.87 C161.71,417.15 161.36,418.96 160.84,420.3 C160.36,421.56 159.66,422.56 158.76,423.29 C157.8,424.06 156.49,424.63 154.81,424.99 C152.99,425.3 150.91,425.24 148.59,424.81 C146.39,424.4 143.71,423.62 140.57,422.45 C137.24,421.22 132.98,419.41 127.79,417.03 C95.67,402.28 68.87,381.42 47.39,354.45 C25.91,327.49 11.62,296.76 4.54,262.27 C-0.84,236.11 -1.44,209.83 2.74,183.44 C6.91,157.05 15.58,132.3 28.75,109.18 C46.67,77.72 70.99,52.3 101.71,32.92 C132.43,13.55 165.58,2.75 201.17,0.5 C262.53,-3.36 315.92,15.07 361.34,55.8 L361.34,55.8 z"/>
 </g>
</svg>

