<?xml version="1.0" encoding="UTF-8"?>
<!DOCTYPE svg PUBLIC "-//W3C//DTD SVG 1.1//EN" "http://www.w3.org/Graphics/SVG/1.1/DTD/svg11.dtd">
<!-- Creator: FutureCorp VMX -->
<svg xmlns="http://www.w3.org/2000/svg" xml:space="preserve" shape-rendering="geometricPrecision" text-rendering="geometricPrecision" image-rendering="optimizeQuality" fill-rule="evenodd" clip-rule="evenodd"
 xmlns:xlink="http://www.w3.org/1999/xlink">
 <g id="Layer_1">
  <metadata id="FutureCorpID_Layer"/>

  <path fill="#000000" d="M99.02,83.03 C92.32,88.72 88.52,95.95 87.62,104.73 C86.93,113.13 89.52,120.74 95.38,127.55 C101.24,134.36 108.44,138.14 116.99,138.88 C125.47,139.43 133.06,136.8 139.75,131 C146.44,125.2 150.18,118.01 150.98,109.42 C151.58,100.91 149.03,93.34 143.33,86.72 C137.63,80.11 130.44,76.38 121.78,75.54 C113.25,74.89 105.67,77.38 99.02,83.03 L99.02,83.03 zM91.44,331.35 L146.92,331.15 C146.92,273.97 146.91,216.78 146.91,159.6 L143.54,159.6 L143.57,159.56 L91.44,159.55 L91.44,331.35 L91.44,331.35 zM235.98,173.49 C235.56,173.93 235.29,174.21 235.18,174.33 C235.11,174.42 235.01,174.53 234.9,174.68 C234.73,174.88 234.16,175.61 233.18,176.86 C231.69,178.63 230.84,179.47 230.61,179.38 C230.47,179.32 230.37,178.96 230.32,178.28 C230.28,177.7 230.27,176.71 230.27,175.31 C230.27,173.66 230.31,170.71 230.37,166.45 C230.36,164.4 230.2,162.91 229.88,161.99 C229.59,161.16 229.11,160.56 228.45,160.21 C227.7,159.81 226.51,159.62 224.88,159.62 C208.92,159.62 192.96,159.62 177,159.62 L176.99,331.16 C195.54,331.19 214.1,331.23 232.65,331.26 C232.55,320.07 232.48,308.88 232.44,297.7 C232.39,284.48 232.37,274.41 232.37,267.51 C232.38,261.22 232.39,256.3 232.39,252.78 C232.4,248.94 232.41,245.99 232.43,243.94 C232.45,240.53 232.51,238.11 232.58,236.68 C232.69,234.64 233.12,231.6 233.88,227.55 C236.68,212.58 245.88,204.75 261.49,204.07 C267.78,203.79 272.86,204.83 276.71,207.19 C280.44,209.48 283.26,213.11 285.17,218.1 C287.15,223.24 288.28,230.16 288.57,238.86 L288.35,306.59 L288.87,331.15 C307.18,331.21 325.48,331.27 343.79,331.33 L343.85,258.73 C343.87,243.62 343.79,233 343.63,226.85 C343.49,221.69 343.23,217.42 342.86,214.04 C342.4,210.03 341.53,205.35 340.22,200 C332.75,169.44 311.97,154.57 277.88,155.4 C261.3,155.8 247.33,161.83 235.98,173.49 L235.98,173.49 zM221.91,0.16 L222.03,0.17 C247.78,1.2 272.48,6.72 296.12,16.73 C319.76,26.74 340.86,40.62 359.43,58.35 C378,76.08 392.87,96.57 404.04,119.81 C415.21,143.04 421.97,167.58 424.31,193.41 C426.92,222.18 423.79,250.43 414.92,278.14 C406.05,305.85 392.29,330.37 373.63,351.7 C346.11,383.17 312.65,404.77 273.24,416.5 C233.83,428.23 194.13,428.41 154.14,417.04 C112.05,405.08 77.03,382.37 49.09,348.91 C21.14,315.45 5.13,277.05 1.04,233.71 C-2.04,201.12 1.72,170.02 12.33,140.4 C22.93,110.78 39.65,84.58 62.51,61.8 C83.77,40.6 107.99,24.75 135.17,14.24 C162.34,3.74 191.25,-0.95 221.91,0.16 L221.91,0.16 z"/>
 </g>
</svg>

