<?xml version="1.0" encoding="UTF-8"?>
<!DOCTYPE svg PUBLIC "-//W3C//DTD SVG 1.1//EN" "http://www.w3.org/Graphics/SVG/1.1/DTD/svg11.dtd">
<!-- Creator: FutureCorp VMX -->
<svg xmlns="http://www.w3.org/2000/svg" xml:space="preserve" shape-rendering="geometricPrecision" text-rendering="geometricPrecision" image-rendering="optimizeQuality" fill-rule="evenodd" clip-rule="evenodd"
 xmlns:xlink="http://www.w3.org/1999/xlink">
 <g id="Layer_1">
  <metadata id="FutureCorpID_Layer"/>

  <path fill="#000000" d="M368.24,66.8 C408.23,109.26 427.21,160.31 425.2,219.94 C423.18,279.95 400.84,329.68 358.19,369.12 C315.54,408.55 263.96,427.19 203.45,425.03 C145.15,422.94 96.25,400.81 56.76,358.63 C17.26,316.44 -1.62,266.16 0.11,207.77 C1.89,147.8 23.78,97.88 65.78,57.99 C107.78,18.1 158.62,-1.21 218.31,0.06 L218.62,0.04 C278.39,2.08 328.26,24.33 368.24,66.8 L368.24,66.8 zM234.66,163.66 C240.52,166.82 245.39,170.45 249.26,174.56 C259.68,185.64 264.44,198.14 263.52,212.08 C263.34,213.86 262.58,215.17 261.25,215.99 C259.91,216.81 258.35,216.93 256.57,216.36 C255.56,216.03 254.85,215.65 254.46,215.2 C254.12,214.83 253.87,214.28 253.69,213.55 C253.49,212.69 253.32,211.18 253.17,209.01 C251.66,192.2 243.76,179.96 229.45,172.27 C227.41,171.18 226.13,170.52 225.61,170.3 C225.24,170.14 224.78,169.98 224.22,169.8 C223.43,169.55 220.72,168.76 216.09,167.43 C213.04,166.35 211.93,164.31 212.73,161.29 C213.45,158.63 215.33,157.51 218.4,157.92 C223.37,158.59 228.79,160.5 234.66,163.66 L234.66,163.66 zM239.37,129.01 C248.04,132.74 255.43,136.86 261.55,141.36 C273.54,150.18 282.82,160.98 289.39,173.76 C295.95,186.55 299.22,200.15 299.19,214.57 C299.19,216.85 299.09,218.44 298.89,219.35 C298.72,220.14 298.42,220.71 297.99,221.08 C297.5,221.52 296.61,221.84 295.33,222.05 C291.71,222.65 289.72,220.04 289.35,214.22 C287.38,183.2 273.19,159.75 246.78,143.87 C239.3,139.38 230.02,135.7 218.95,132.85 C216.47,132.15 215.23,130.65 215.24,128.36 C215.25,126.95 215.72,125.79 216.66,124.88 C217.59,123.99 218.79,123.53 220.27,123.51 C224.37,123.45 230.74,125.28 239.37,129.01 L239.37,129.01 zM257.73,101.71 C270.13,107.63 280.94,114.53 290.16,122.41 C304.43,134.6 315.45,149.24 323.23,166.31 C331,183.39 334.85,201.34 334.78,220.17 C334.77,222.92 334.68,224.82 334.51,225.87 C334.36,226.75 334.09,227.4 333.7,227.82 C333.25,228.3 332.39,228.66 331.14,228.89 C327.71,229.54 325.6,228.67 324.82,226.3 C324.75,226.09 324.7,225.86 324.69,225.63 C324.67,225.47 324.66,225.16 324.65,224.7 C324.62,224.05 324.54,221.58 324.4,217.29 C323.49,188.97 314.29,164.42 296.81,143.65 C279.32,122.87 255.99,108.76 226.82,101.33 C223.04,100.36 220.58,99.67 219.46,99.26 C218.56,98.92 217.93,98.57 217.59,98.2 C217.15,97.73 216.9,96.88 216.81,95.64 C216.57,91.98 219.07,90.4 224.3,90.9 C234.21,92.2 245.35,95.8 257.73,101.71 L257.73,101.71 zM151.6,117.63 C153.44,118.75 155.01,120.52 156.3,122.93 C157.73,125.58 159.14,129.66 160.55,135.16 C161.54,139.07 162.54,142.97 163.54,146.87 C166.44,160.08 168.09,168.52 168.51,172.2 C168.83,175.08 168.72,177.21 168.16,178.57 C167.45,180.31 165.23,182.14 161.52,184.05 C157.65,185.67 153.77,187.28 149.9,188.9 C147.1,190.13 144.25,191.82 141.32,193.96 C142.11,196.78 142.71,198.94 143.13,200.43 C143.52,201.79 143.82,202.87 144.05,203.65 C144.3,204.5 144.51,205.18 144.67,205.68 C144.94,206.52 145.22,207.26 145.51,207.92 C145.93,208.84 147.26,211.38 149.51,215.54 C163.07,240.62 182.58,260.87 208.03,276.28 C211.92,278.63 214.85,279.88 216.81,280.03 C218.48,280.16 220.1,279.58 221.67,278.31 C223.51,276.82 226.12,273.62 229.5,268.72 C231.88,265.26 233.93,262.85 235.64,261.49 C237.18,260.27 238.82,259.57 240.57,259.38 C242.53,259.17 245.18,259.56 248.53,260.55 C256.04,262.79 264.9,266.02 275.12,270.24 C285.34,274.46 292.18,277.74 295.65,280.07 C298.45,281.95 300.33,283.86 301.31,285.78 C302.19,287.52 302.52,289.64 302.31,292.13 C302.08,294.87 301.1,298.71 299.36,303.64 C291.11,327.04 273.6,338.59 246.85,338.29 C238.7,338.2 230.69,336.94 222.81,334.5 C215.11,332.12 207.17,328.54 199.02,323.76 C190.67,318.86 181.71,312.47 172.12,304.58 C156.72,291.91 141.85,276.65 127.49,258.8 C113.13,240.95 102.42,224.38 95.34,209.08 C81.59,179.35 81.93,154.83 96.36,135.54 C106.99,121.33 122.54,114.62 143.01,115.42 C146.7,115.65 149.56,116.39 151.6,117.63 L151.6,117.63 z"/>
 </g>
</svg>

